<?xml version="1.0" encoding="UTF-8"?>
<svg version="1.1" xmlns="http://www.w3.org/2000/svg" width="365" height="185">
<path d="M0 0 C1.62362646 1.90796038 3.18514262 3.87015637 4.6875 5.875 C5.45449219 6.88304688 6.22148437 7.89109375 7.01171875 8.9296875 C8.95339218 11.928028 10.0439145 14.57445303 11 18 C8.80078125 18.7890625 8.80078125 18.7890625 6 19 C3.60546875 17.0859375 3.60546875 17.0859375 1.1875 14.375 C-7.49665296 5.21693309 -16.08141464 1.07699332 -28.87060547 0.64648438 C-43.07307111 0.49885657 -56.5212513 4.08902393 -67.12109375 13.91796875 C-73.22372503 20.68034395 -78.99284107 30.04649693 -81 39 C-80.06329971 38.99066437 -79.12659943 38.98132874 -78.16151428 38.97171021 C-67.4781838 38.91272944 -56.85242251 39.27596556 -46.18359375 39.8046875 C-44.42961618 39.88967989 -42.67563353 39.9745675 -40.92164612 40.05935669 C-37.28022019 40.23646072 -33.63897049 40.41679025 -29.99780273 40.59912109 C-25.34492861 40.83156512 -20.69158957 41.05270422 -16.03803921 41.27113152 C-12.43029883 41.44223952 -8.82295721 41.62083385 -5.21568489 41.80151749 C-3.49950109 41.88629512 -1.78318389 41.96841782 -0.06674004 42.0477562 C2.32779781 42.15924793 4.72158798 42.28123264 7.11547852 42.40576172 C7.81323395 42.43597412 8.51098938 42.46618652 9.22988892 42.49731445 C13.78631877 42.74878956 17.68561263 43.6186062 22 45 C21.67 45.66 21.34 46.32 21 47 C19.09428406 47.3989563 19.09428406 47.3989563 16.61206055 47.59814453 C15.70249603 47.67164124 14.79293152 47.74513794 13.85580444 47.82086182 C9.30755971 48.10616297 4.76192121 48.29053716 0.20703125 48.4296875 C-1.94320033 48.50208696 -4.09342801 48.57460229 -6.24365234 48.6472168 C-7.9390213 48.70273209 -7.9390213 48.70273209 -9.66864014 48.7593689 C-26.98737487 49.32846925 -44.29833971 49.98317561 -61.60546875 50.83203125 C-62.33061613 50.8674704 -63.05576351 50.90290955 -63.80288506 50.93942261 C-70.94727693 51.2891265 -78.09126585 51.64580664 -85.23461246 52.01626682 C-88.50779448 52.18491111 -91.78127674 52.347583 -95.0546875 52.51171875 C-96.85228767 52.60837578 -96.85228767 52.60837578 -98.686203 52.70698547 C-99.7718605 52.76073837 -100.85751801 52.81449127 -101.97607422 52.86987305 C-102.92715057 52.91935593 -103.87822693 52.96883881 -104.85812378 53.01982117 C-107 53 -107 53 -108 52 C-110.00669993 37.49254639 -103.70686651 23.7710344 -96 12 C-95.2575 10.82824219 -95.2575 10.82824219 -94.5 9.6328125 C-85.01047246 -4.22405441 -68.36608863 -12.11165 -52.37890625 -15.56640625 C-32.8910791 -18.16259233 -14.84606951 -12.85880036 0 0 Z " fill="#295423" transform="translate(221,118)"/>
<path d="M0 0 C2.5 2.1875 2.5 2.1875 4.5 5.1875 C4.5 10.14664849 2.65213341 12.91567654 -0.59765625 16.41015625 C-12.37270721 27.41148723 -28.31878673 34.19984762 -42.75585938 40.93579102 C-50.28519535 44.49221408 -57.47012464 48.47326844 -64.56176758 52.83544922 C-65.28775146 53.27518066 -66.01373535 53.71491211 -66.76171875 54.16796875 C-67.39037842 54.55879639 -68.01903809 54.94962402 -68.66674805 55.35229492 C-70.5 56.1875 -70.5 56.1875 -74.5 56.1875 C-73.62019725 51.8133194 -71.25286905 48.96717026 -68.5 45.5625 C-68.0059668 44.94294434 -67.51193359 44.32338867 -67.00292969 43.68505859 C-63.33258729 39.12132417 -59.50899352 34.72066611 -55.5390625 30.4140625 C-53.67658618 28.38032399 -51.89915443 26.29798702 -50.125 24.1875 C-39.45160477 12.04865005 -17.60564951 -9.11721135 0 0 Z " fill="#275520" transform="translate(304.5,50.8125)"/>
<path d="M0 0 C1.02480469 -0.020625 2.04960937 -0.04125 3.10546875 -0.0625 C12.41451078 -0.10981406 20.8836371 1.07131931 27.84375 7.703125 C29.65026782 9.8841648 30.19949129 11.41933088 30.125 14.25 C28.58288853 18.08303668 26.671224 19.58699702 22.87109375 21.30078125 C12.36019352 24.93399427 1.5370949 25.51878207 -9.5 25.5625 C-10.51900391 25.56797852 -11.53800781 25.57345703 -12.58789062 25.57910156 C-19.62622448 25.51155964 -25.3534583 24.64804856 -31.60546875 21.2578125 C-36.56756007 18.6756584 -41.704918 17.9639846 -47.1875 17.125 C-49.1429507 16.81631176 -51.09744363 16.50147627 -53.05078125 16.1796875 C-54.33335815 15.98221924 -54.33335815 15.98221924 -55.6418457 15.78076172 C-57.875 15.25 -57.875 15.25 -60.875 13.25 C-60.875 12.59 -60.875 11.93 -60.875 11.25 C-50.90388549 8.32464181 -40.90491539 5.71300901 -30.75 3.5 C-29.3122522 3.18446167 -29.3122522 3.18446167 -27.84545898 2.86254883 C-18.47459093 0.85819467 -9.57183638 0.04779943 0 0 Z " fill="#275620" transform="translate(326.875,140.75)"/>
<path d="M0 0 C11.07364455 3.80860331 18.98106196 10.72470205 27 19 C27.72896484 19.74540039 27.72896484 19.74540039 28.47265625 20.50585938 C37.91376872 30.24281052 46.02024533 40.91378297 53.625 52.125 C54.06336182 52.76477783 54.50172363 53.40455566 54.95336914 54.0637207 C58 58.64134654 58 58.64134654 58 62 C53.33310544 61.48724995 50.27702791 59.35221474 46.5625 56.6875 C40.24785765 52.30720226 33.71472371 48.5550682 26.9375 44.9375 C-7.26602918 26.60095622 -7.26602918 26.60095622 -17 12 C-17.4375 8.5625 -17.4375 8.5625 -17 5 C-11.79784278 -0.20215722 -7.12313698 -1.06342843 0 0 Z " fill="#275520" transform="translate(68,50)"/>
<path d="M0 0 C4.53224977 3.19923513 5.76171013 7.8187345 7 13 C7.55894793 16.3321896 7.83569479 19.6266086 8 23 C8.04125 23.79535156 8.0825 24.59070313 8.125 25.41015625 C8.44394483 38.30748791 6.69326149 51.18669957 3.625 63.6875 C3.42817627 64.50017334 3.23135254 65.31284668 3.02856445 66.15014648 C1.63288673 71.51382968 -0.3771945 76.11711742 -3 81 C-4.32 81 -5.64 81 -7 81 C-11.18258595 62.65365707 -14.35702518 43.589241 -14.375 24.75 C-14.37653076 23.88882568 -14.37806152 23.02765137 -14.37963867 22.14038086 C-14.22464442 13.38537061 -13.34573331 6.34573331 -7 0 C-4.23382717 -1.38308641 -2.92591209 -0.90563946 0 0 Z " fill="#285422" transform="translate(183,9)"/>
<path d="M0 0 C1.33242708 0.55884855 2.6441757 1.16830603 3.9375 1.8125 C16.87291303 7.8532952 31.89156247 7.60851469 45.90454102 8.26611328 C46.58922958 8.30100357 47.27391815 8.33589386 47.97935486 8.37184143 C49.86432474 8.46699072 51.74978442 8.55228913 53.63525391 8.63696289 C57.01145991 9.00123646 59.83179702 9.8036938 63 11 C62.67 12.32 62.34 13.64 62 15 C40.99423343 20.62246741 19.68949189 22.50916746 -2 23 C-3.23878906 23.02964844 -4.47757813 23.05929688 -5.75390625 23.08984375 C-8.50949588 23.12151719 -11.24614753 23.09392985 -14 23 C-14.94488281 22.97164062 -15.88976563 22.94328125 -16.86328125 22.9140625 C-17.77464844 22.85992187 -18.68601562 22.80578125 -19.625 22.75 C-20.81996094 22.68039063 -20.81996094 22.68039063 -22.0390625 22.609375 C-24 22 -24 22 -25.2734375 19.953125 C-25.51320313 19.30859375 -25.75296875 18.6640625 -26 18 C-12.07681899 -1.18788383 -12.07681899 -1.18788383 0 0 Z " fill="#295523" transform="translate(37,145)"/>
<path d="M0 0 C7.80133063 2.79810196 14.74997205 7.25041651 21.3125 12.25 C22.1480542 12.88591064 22.1480542 12.88591064 23.00048828 13.53466797 C25.64602583 15.63526644 26.90890948 16.72672844 28 20 C27 22 27 22 24.0859375 23.0703125 C22.86132812 23.41835937 21.63671875 23.76640625 20.375 24.125 C19.16585937 24.47820312 17.95671875 24.83140625 16.7109375 25.1953125 C10.39807292 26.56420735 5.80163717 26.31872525 -0.125 23.75 C-1.61386719 23.12351563 -1.61386719 23.12351563 -3.1328125 22.484375 C-6.97723492 20.49407456 -10.13980477 18.44669198 -12.375 14.6875 C-13.22094728 11.04992671 -12.96685978 8.60960985 -12 5 C-8.38130798 -0.00230955 -5.99860232 -0.4957004 0 0 Z " fill="#275520" transform="translate(82,109)"/>
<path d="M0 0 C3.7484023 3.03062313 5.77535728 5.20285825 6.375 10 C6.28662383 15.30256992 3.66984635 19.55502792 1 24 C0.61199219 24.66644531 0.22398437 25.33289063 -0.17578125 26.01953125 C-4.51109405 32.18023891 -11.90697053 34.40717935 -19 36 C-21.93359375 35.625 -21.93359375 35.625 -24 35 C-22.22432559 23.25934684 -18.12848129 11.60202535 -11 2 C-7.33091443 -0.44605705 -4.26381231 -0.83946402 0 0 Z " fill="#275521" transform="translate(228,55)"/>
<path d="M0 0 C8.95276646 6.0183524 12.4634511 20.18414565 15 30 C15.125 33.4375 15.125 33.4375 15 36 C7.15554259 35.45271227 -1.71945425 33.35773506 -7.32421875 27.62109375 C-12.13456962 20.85433184 -15.28164117 14.42221337 -14 6 C-10.54425279 0.47080446 -6.52041581 -1.53839211 0 0 Z " fill="#275521" transform="translate(141,55)"/>
<path d="M0 0 C2.52019286 2.43427719 2.70535962 4.54187459 3.09375 7.97265625 C2.70886078 11.7574002 1.9575019 13.62679556 -0.69140625 16.37109375 C-6.42830645 21.02263445 -13.38799638 21.39715549 -20.515625 21.296875 C-27.30011901 20.14970433 -32.66740247 16.48235031 -38.28125 12.66015625 C-38.28125 11.34015625 -38.28125 10.02015625 -38.28125 8.66015625 C-10.45546308 -6.14079424 -10.45546308 -6.14079424 0 0 Z " fill="#27541F" transform="translate(296.28125,110.33984375)"/>
<path d="M0 0 C9.13006519 -1.32533204 16.56161304 1.97511051 24 7 C28.70614931 10.60519397 32.88102022 14.74933928 37 19 C37.72896484 19.74540039 37.72896484 19.74540039 38.47265625 20.50585938 C47.91376872 30.24281052 56.02024533 40.91378297 63.625 52.125 C64.06336182 52.76477783 64.50172363 53.40455566 64.95336914 54.0637207 C68 58.64134654 68 58.64134654 68 62 C63.33310544 61.48724995 60.27702791 59.35221474 56.5625 56.6875 C50.24785765 52.30720226 43.71472371 48.5550682 36.9375 44.9375 C6.31620026 28.52139276 6.31620026 28.52139276 -1 18 C2.61223909 19.67711101 6.16719443 21.33438885 8 25 C8.556875 25.103125 9.11375 25.20625 9.6875 25.3125 C12.47827615 26.14219021 14.073017 27.71018835 16.23046875 29.60546875 C18.89912639 31.70858305 21.8381559 33.21106854 24.83203125 34.80078125 C27 36 27 36 30.1875 38.25 C34.45639917 40.90620393 38.05009063 41 43 41 C44.68698082 41.61344757 46.35965807 42.27095914 48 43 C48 43.66 48 44.32 48 45 C49.32 44.34 50.64 43.68 52 43 C51.38125 42.773125 50.7625 42.54625 50.125 42.3125 C47.37585439 40.6144983 47.00115914 39.00347742 46 36 C45.67 35.67 45.34 35.34 45 35 C44.95936168 33.33382885 44.957279 31.66611905 45 30 C44.1028125 29.9071875 44.1028125 29.9071875 43.1875 29.8125 C40.09660471 28.66445318 39.4119656 26.89452948 38 24 C38 23.34 38 22.68 38 22 C37.01 22 36.02 22 35 22 C34.8453125 21.0409375 34.8453125 21.0409375 34.6875 20.0625 C34.460625 19.381875 34.23375 18.70125 34 18 C33.01 17.67 32.02 17.34 31 17 C29.87831451 15.84432404 28.75687492 14.68840833 27.63671875 13.53125 C20.74250511 7.08129356 12.60101655 1.89011861 2.9375 1.8125 C1.4834375 1.9053125 1.4834375 1.9053125 0 2 C0 1.34 0 0.68 0 0 Z " fill="#355333" transform="translate(58,50)"/>
<path d="M0 0 C0.495 1.485 0.495 1.485 1 3 C-0.375 4.5 -0.375 4.5 -2 6 C-2.66 6 -3.32 6 -4 6 C-4.268125 6.639375 -4.53625 7.27875 -4.8125 7.9375 C-6 10 -6 10 -9 11 C-10.3498008 12.78265886 -10.3498008 12.78265886 -11 15 C-10.70630173 16.34262065 -10.3721042 17.67696283 -10 19 C-10.4375 21.25 -10.4375 21.25 -11 23 C-9.35 23.33 -7.7 23.66 -6 24 C-6 23.34 -6 22.68 -6 22 C-1.25 22.75 -1.25 22.75 1 25 C-0.48886719 25.72703125 -0.48886719 25.72703125 -2.0078125 26.46875 C-10.2460127 30.52460488 -18.25008606 34.77912181 -26.109375 39.53125 C-29 41 -29 41 -33 41 C-32.12019725 36.6258194 -29.75286905 33.77967026 -27 30.375 C-26.5059668 29.75544434 -26.01193359 29.13588867 -25.50292969 28.49755859 C-21.83894874 23.94173405 -18.02016602 19.55005555 -14.0625 15.24609375 C-12.08457106 13.09209917 -10.16185118 10.90013811 -8.25 8.6875 C-5.61384097 5.65806783 -2.88256788 2.79521734 0 0 Z " fill="#2E5529" transform="translate(263,66)"/>
<path d="M0 0 C1.70929687 0.09087891 1.70929687 0.09087891 3.453125 0.18359375 C4.20827393 0.22347412 4.96342285 0.26335449 5.74145508 0.30444336 C7.43145078 0.39408303 9.12139166 0.48476164 10.8112793 0.57641602 C15.37470429 0.82119261 19.93727354 1.04282835 24.50390625 1.21875 C25.39239258 1.25556885 26.28087891 1.2923877 27.19628906 1.33032227 C28.90500058 1.40032267 30.61400404 1.46360889 32.32324219 1.51928711 C36.89324433 1.71446233 40.6944909 2.28750282 45 4 C44.67 5.32 44.34 6.64 44 8 C23.6482531 13.44741052 3.01159642 15.36527469 -18 16 C-18 15.34 -18 14.68 -18 14 C-14.30114917 13.12253539 -11.04034007 12.97458968 -7.25 13.125 C-2.28172022 13.18611045 1.48079325 12.45141552 6.0859375 10.66796875 C8.44810671 9.8436199 10.51892588 9.75989605 13 10 C13.33 9.34 13.66 8.68 14 8 C17.63 8 21.26 8 25 8 C25.33 7.34 25.66 6.68 26 6 C21.71 5.67 17.42 5.34 13 5 C13 4.67 13 4.34 13 4 C16.24992446 3.94180576 19.49971435 3.90633884 22.75 3.875 C23.67039063 3.85824219 24.59078125 3.84148437 25.5390625 3.82421875 C26.42851563 3.81777344 27.31796875 3.81132812 28.234375 3.8046875 C29.05131836 3.79421387 29.86826172 3.78374023 30.70996094 3.77294922 C33.23621726 4.02342026 34.77016309 4.83479307 37 6 C40.16695956 6.16724737 40.16695956 6.16724737 43 6 C43 5.67 43 5.34 43 5 C35.23813407 4.00769211 27.50473499 3.65085469 19.6875 3.375 C18.42615234 3.3234375 17.16480469 3.271875 15.86523438 3.21875 C14.65544922 3.17492187 13.44566406 3.13109375 12.19921875 3.0859375 C10.55699341 3.0247876 10.55699341 3.0247876 8.8815918 2.96240234 C6.36388237 2.99525223 4.38744055 3.25177866 2 4 C2 3.34 2 2.68 2 2 C1.34 2 0.68 2 0 2 C0 1.34 0 0.68 0 0 Z " fill="#355333" transform="translate(55,152)"/>
<path d="M0 0 C3 2.5 3 2.5 5 5 C4.67 5.66 4.34 6.32 4 7 C3.505 6.360625 3.01 5.72125 2.5 5.0625 C-0.98806387 2.18484731 -3.53461041 2.29769264 -8 2 C-8.33 2.99 -8.66 3.98 -9 5 C-9.99 5.495 -9.99 5.495 -11 6 C-11.61094728 12.50319439 -11.17295897 17.57126007 -7.69921875 23.21484375 C-4.71163172 26.35352713 -1.18747128 26.7569071 3 27 C5.9254644 27.2236068 5.9254644 27.2236068 8 26 C8.07746506 21.42956128 7.92244002 17.48042297 7 13 C7.33 12.34 7.66 11.68 8 11 C15.38244147 28.15994983 15.38244147 28.15994983 15 36 C7.15554259 35.45271227 -1.71945425 33.35773506 -7.32421875 27.62109375 C-12.13456962 20.85433184 -15.28164117 14.42221337 -14 6 C-10.45939193 0.33502709 -6.62069658 -1.18995311 0 0 Z " fill="#2A4F27" transform="translate(141,55)"/>
<path d="M0 0 C0.33 0.99 0.66 1.98 1 3 C1.66 3 2.32 3 3 3 C3.33 3.33 3.66 3.66 4 4 C4 3.67 4 3.34 4 3 C8.25023138 3.11939499 12.50028405 3.24370164 16.75024414 3.37231445 C18.19226302 3.41529012 19.63432067 3.45698648 21.07641602 3.49731445 C28.75955833 3.71302833 36.37125304 3.98567498 44 5 C44 5.99 44 6.98 44 8 C38.48563969 8.25065274 38.48563969 8.25065274 36.0625 7 C33.05202748 5.54037696 30.29149266 5.87340413 27 6 C27 6.99 27 7.98 27 9 C22.90274731 10.04167441 19.38504776 9.94409525 15.1875 9.5625 C13.44533203 9.40974609 13.44533203 9.40974609 11.66796875 9.25390625 C10.78753906 9.17011719 9.90710938 9.08632812 9 9 C8.67 9.66 8.34 10.32 8 11 C5.36 10.67 2.72 10.34 0 10 C0 10.66 0 11.32 0 12 C0.66 12.33 1.32 12.66 2 13 C0.02 13.33 -1.96 13.66 -4 14 C-4.33 13.34 -4.66 12.68 -5 12 C-5.99 11.34 -6.98 10.68 -8 10 C-7.01 9.34 -6.02 8.68 -5 8 C-5.33 7.34 -5.66 6.68 -6 6 C-4.6875 4 -4.6875 4 -3 2 C-2.01 2 -1.02 2 0 2 C0 1.34 0 0.68 0 0 Z " fill="#25551D" transform="translate(54,151)"/>
<path d="M0 0 C2.34375 1.52734375 2.34375 1.52734375 4 3 C3.67 3.66 3.34 4.32 3 5 C-0.33333333 4.33333333 -3.66666667 3.66666667 -7 3 C-6.67 3.99 -6.34 4.98 -6 6 C-7.299375 5.979375 -8.59875 5.95875 -9.9375 5.9375 C-11.29165633 5.91600546 -12.64756083 5.92851801 -14 6 C-14.33 6.33 -14.66 6.66 -15 7 C-16.99958364 7.04080783 -19.00045254 7.04254356 -21 7 C-21.33 7.99 -21.66 8.98 -22 10 C-23.65 10.33 -25.3 10.66 -27 11 C-27 11.66 -27 12.32 -27 13 C-26.01 13.33 -25.02 13.66 -24 14 C-22.8125 17.5625 -22.8125 17.5625 -22 21 C-26.97209562 19.23570801 -31.43438061 16.6060834 -36 14 C-36 12.68 -36 11.36 -36 10 C-24.8053549 4.04540154 -13.08043218 -2.18663851 0 0 Z " fill="#30522E" transform="translate(294,109)"/>
<path d="M0 0 C12.82860212 -0.11696121 25.60535128 0.14500274 38.42041016 0.74462891 C41.28905808 0.87679957 44.1580849 0.99520675 47.02734375 1.11328125 C48.8776419 1.19708772 50.72790408 1.28169293 52.578125 1.3671875 C53.42296448 1.40061249 54.26780396 1.43403748 55.13824463 1.46847534 C60.06154329 1.71426176 64.3146945 2.45421068 69 4 C68.67 4.66 68.34 5.32 68 6 C66.13671875 6.39428711 66.13671875 6.39428711 63.6875 6.58984375 C62.77871094 6.66315918 61.86992187 6.73647461 60.93359375 6.81201172 C55.9573297 7.13089682 50.98302334 7.37694163 46 7.5625 C44.89092285 7.6049585 43.7818457 7.64741699 42.63916016 7.69116211 C30.42700476 8.11756658 18.21772284 8.09821321 6 8 C6 7.67 6 7.34 6 7 C9.37477817 6.68507571 12.74986199 6.37354213 16.125 6.0625 C17.05699219 5.97548828 17.98898438 5.88847656 18.94921875 5.79882812 C26.6304728 5.09340683 34.30123764 4.5499116 42 4 C28.14 3.01 14.28 2.02 0 1 C0 0.67 0 0.34 0 0 Z " fill="#455F42" transform="translate(174,159)"/>
<path d="M0 0 C0 0.33 0 0.66 0 1 C2.31 1.33 4.62 1.66 7 2 C5 4 5 4 1.7265625 4.08984375 C0.359228 4.04318797 -1.00796118 3.99213747 -2.375 3.9375 C-16.46780936 3.68003218 -28.79604676 7.60543787 -39.23828125 17.28515625 C-40.11033203 18.13400391 -40.11033203 18.13400391 -41 19 C-41.52980469 19.51433594 -42.05960938 20.02867187 -42.60546875 20.55859375 C-43.75121914 21.6915066 -44.87831149 22.84325873 -46 24 C-45.34 22.35 -44.68 20.7 -44 19 C-44.66 18.34 -45.32 17.68 -46 17 C-45.236875 16.566875 -44.47375 16.13375 -43.6875 15.6875 C-41.05841181 14.20105936 -41.05841181 14.20105936 -39.5625 12.4375 C-37.33095057 10.38447453 -34.87471249 9.8304725 -32 9 C-32 8.34 -32 7.68 -32 7 C-28.535 6.505 -28.535 6.505 -25 6 C-25 5.34 -25 4.68 -25 4 C-22.77312452 3.0005744 -20.54410699 2.00734253 -18.30859375 1.02734375 C-16.64570414 0.2873438 -15.00295621 -0.49852189 -13.375 -1.3125 C-8.92027954 -2.60202434 -4.37706648 -1.22557862 0 0 Z " fill="#375337" transform="translate(193,115)"/>
<path d="M0 0 C3.63417034 0.02609817 4.16324437 0.30485715 7.1875 2.75 C9.76982803 6.03659931 10.64484256 8.01373498 10.609375 12.234375 C9.68431708 17.74450264 6.30564857 22.79152715 3.25 27.375 C2.59 27.045 1.93 26.715 1.25 26.375 C2.25 23.375 2.25 23.375 3.73828125 22.07421875 C5.91043695 19.63264839 5.99015266 17.38775405 6.4375 14.1875 C6.59605469 13.10082031 6.75460938 12.01414062 6.91796875 10.89453125 C7.08232422 9.64736328 7.08232422 9.64736328 7.25 8.375 C4.91785852 7.16871992 2.75357861 6.2095262 0.25 5.375 C-2.25240018 6.67617552 -2.25240018 6.67617552 -4.75 8.375 C-6.07608822 9.05596422 -7.40686601 9.72830586 -8.75 10.375 C-8.42 11.365 -8.09 12.355 -7.75 13.375 C-9.07 13.045 -10.39 12.715 -11.75 12.375 C-10.46999898 7.37135967 -8.57671924 4.80923522 -4.75 1.375 C-3.75 0.375 -3.75 0.375 0 0 Z " fill="#2A4D29" transform="translate(223.75,54.625)"/>
<path d="M0 0 C0.66 0 1.32 0 2 0 C1.24148819 4.17181498 0.42882538 5.69369616 -3.0625 8.1875 C-13.94210607 12.82248369 -25.97646569 13.26636016 -37.625 13.3125 C-38.64400391 13.31797852 -39.66300781 13.32345703 -40.71289062 13.32910156 C-46.15696452 13.27685863 -50.89877187 12.9775994 -56 11 C-56.33 10.34 -56.66 9.68 -57 9 C-56.32235596 9.0407666 -55.64471191 9.0815332 -54.9465332 9.12353516 C-42.91646225 9.81119961 -31.01490881 10.34230936 -19 9.1875 C-18.11739502 9.10516113 -17.23479004 9.02282227 -16.32543945 8.93798828 C-11.68894304 8.56905275 -11.68894304 8.56905275 -8 6 C-5.375 5.875 -5.375 5.875 -3 6 C-2.67 5.01 -2.34 4.02 -2 3 C-1.34 2.01 -0.68 1.02 0 0 Z " fill="#3D543D" transform="translate(355,153)"/>
<path d="M0 0 C0.495 1.485 0.495 1.485 1 3 C-0.375 4.5 -0.375 4.5 -2 6 C-2.66 6 -3.32 6 -4 6 C-4.268125 6.639375 -4.53625 7.27875 -4.8125 7.9375 C-6 10 -6 10 -9 11 C-9.67753336 12.3278444 -10.34157633 13.66257692 -11 15 C-12.62476846 16.89098896 -14.29624472 18.74235447 -16 20.5625 C-18.57444258 23.32029678 -20.90636463 25.85954694 -23 29 C-22.65213292 30.97536745 -22.65213292 30.97536745 -22 33 C-22 34.32 -22 35.64 -22 37 C-28.5 41 -28.5 41 -33 41 C-32.12019725 36.6258194 -29.75286905 33.77967026 -27 30.375 C-26.5059668 29.75544434 -26.01193359 29.13588867 -25.50292969 28.49755859 C-21.83894874 23.94173405 -18.02016602 19.55005555 -14.0625 15.24609375 C-12.08457106 13.09209917 -10.16185118 10.90013811 -8.25 8.6875 C-5.61384097 5.65806783 -2.88256788 2.79521734 0 0 Z " fill="#3A5139" transform="translate(263,66)"/>
<path d="M0 0 C1.5 1.1875 1.5 1.1875 3 3 C3.639375 3.763125 4.27875 4.52625 4.9375 5.3125 C11 13.21212121 11 13.21212121 11 17 C3.83096068 16.02531845 -1.90258745 11.34710452 -6.625 6.0625 C-7.07875 5.381875 -7.5325 4.70125 -8 4 C-4.5 0 -4.5 0 0 0 Z " fill="#375138" transform="translate(115,95)"/>
<path d="M0 0 C0.66 0 1.32 0 2 0 C-2.62787922 10.94300608 -18.10103091 16.79136791 -28 22 C-29.093125 22.57621094 -30.18625 23.15242188 -31.3125 23.74609375 C-37.65439093 27 -37.65439093 27 -40 27 C-39.505 25.515 -39.505 25.515 -39 24 C-38.34 24 -37.68 24 -37 24 C-36.67 22.35 -36.34 20.7 -36 19 C-34 20 -34 20 -33 21 C-32.46375 20.360625 -31.9275 19.72125 -31.375 19.0625 C-28.55632807 16.61470596 -26.66139268 16.33285388 -23 16 C-23 15.34 -23 14.68 -23 14 C-15 12 -15 12 -12.796875 11.62109375 C-12.20390625 11.41613281 -11.6109375 11.21117188 -11 11 C-10.67 10.01 -10.34 9.02 -10 8 C-8.66666667 7 -7.33333333 6 -6 5 C-5.67 4.01 -5.34 3.02 -5 2 C-3.35 2 -1.7 2 0 2 C0 1.34 0 0.68 0 0 Z " fill="#365436" transform="translate(304,63)"/>
<path d="M0 0 C5.52002717 3.94287655 9.27437628 8.74273155 12 15 C11.67 15.99 11.34 16.98 11 18 C6.38116863 17.53485267 4.49580287 15.91387765 1.375 12.5625 C-1.04451291 9.99021921 -3.04993243 7.96671171 -6 6 C-5.67 5.01 -5.34 4.02 -5 3 C-3.35 3 -1.7 3 0 3 C0 2.01 0 1.02 0 0 Z " fill="#364E36" transform="translate(220,119)"/>
<path d="M0 0 C-6.435 1.98 -6.435 1.98 -13 4 C-13.33 6.31 -13.66 8.62 -14 11 C-16.10478604 10.88590318 -18.20884577 10.75834639 -20.3125 10.625 C-21.48425781 10.55539063 -22.65601563 10.48578125 -23.86328125 10.4140625 C-27 10 -27 10 -30 8 C-30 7.34 -30 6.68 -30 6 C-27.167031 5.20701081 -24.33364215 4.41557728 -21.5 3.625 C-20.70851563 3.40328125 -19.91703125 3.1815625 -19.1015625 2.953125 C-17.51290122 2.51038333 -15.92304584 2.07190429 -14.33203125 1.63769531 C-12.80572178 1.22032509 -11.28210118 0.79296199 -9.76171875 0.35449219 C-5.87739297 -0.71748084 -4.01119062 -1.00279766 0 0 Z " fill="#3C543D" transform="translate(296,146)"/>
<path d="M0 0 C3.09875751 1.1515319 6.05378159 2.50350811 9 4 C9 4.66 9 5.32 9 6 C8.11957031 5.77183594 7.23914063 5.54367188 6.33203125 5.30859375 C5.17058594 5.02113281 4.00914063 4.73367187 2.8125 4.4375 C1.66394531 4.14746094 0.51539062 3.85742188 -0.66796875 3.55859375 C-3.88480093 3.01931239 -5.89672783 3.11752524 -9 4 C-10.53835818 10.09305204 -10.53835818 10.09305204 -8.859375 15.859375 C-4.46704921 19.84120306 1.25464791 22.60456273 7 24 C9.31019876 23.63916106 10.9104308 23.0447846 13 22 C13 22.66 13 23.32 13 24 C13.66 24.33 14.32 24.66 15 25 C10.88317959 27.0584102 7.26337814 26.41778378 3.046875 25.0234375 C-9.13805089 20.13145986 -9.13805089 20.13145986 -12.375 14.6875 C-13.22094728 11.04992671 -12.96685978 8.60960985 -12 5 C-8.46166478 0.1087719 -5.93654487 -0.89048173 0 0 Z " fill="#405341" transform="translate(82,109)"/>
<path d="M0 0 C0.33 0.66 0.66 1.32 1 2 C1.68586182 2.01981934 2.37172363 2.03963867 3.07836914 2.06005859 C22.08914974 2.62829429 41.02890254 3.67495486 60 5 C60 5.33 60 5.66 60 6 C55.76874962 6.19453141 51.53719581 6.37285138 47.3046875 6.53710938 C45.86928651 6.59498845 44.43404732 6.65705614 42.99902344 6.72363281 C35.53396928 7.06721271 28.41237137 7.35421103 21.1027832 5.45678711 C18.02321818 4.78781391 15.04378288 4.89653901 11.91015625 5.02734375 C10 5 10 5 7 4 C4.94106379 3.77674186 2.87766347 3.59294241 0.8125 3.4375 C-0.81751953 3.31181641 -0.81751953 3.31181641 -2.48046875 3.18359375 C-3.31191406 3.12300781 -4.14335937 3.06242188 -5 3 C-5 2.67 -5 2.34 -5 2 C-3.35 2 -1.7 2 0 2 C0 1.34 0 0.68 0 0 Z " fill="#204923" transform="translate(173,158)"/>
<path d="M0 0 C1.55074219 -0.0309375 1.55074219 -0.0309375 3.1328125 -0.0625 C11.13442021 -0.10281037 18.47351437 0.73234291 25.25 5.25 C24.92 5.91 24.59 6.57 24.25 7.25 C20.87205351 6.84464642 17.72705494 6.41263237 14.5 5.3125 C3.85037573 1.83089207 -6.68075345 2.030807 -17.75 2.25 C-17.75 1.92 -17.75 1.59 -17.75 1.25 C-11.85637565 -0.01001624 -5.99793228 0.02947387 0 0 Z " fill="#384F36" transform="translate(326.75,140.75)"/>
<path d="M0 0 C2.5 2.1875 2.5 2.1875 4.5 5.1875 C4.25 8.3125 4.25 8.3125 3.5 11.1875 C2.84 11.5175 2.18 11.8475 1.5 12.1875 C1.5825 10.929375 1.665 9.67125 1.75 8.375 C1.75652675 5.03623364 1.75652675 5.03623364 0 2.25 C-8.05552238 -1.17359701 -13.76667926 0.93370461 -21.62109375 3.765625 C-22.57113281 4.23484375 -23.52117187 4.7040625 -24.5 5.1875 C-24.83 6.1775 -25.16 7.1675 -25.5 8.1875 C-27.81808364 9.22235877 -30.15175298 10.2230414 -32.5 11.1875 C-32.83 11.8475 -33.16 12.5075 -33.5 13.1875 C-35.47522846 14.23558041 -37.47481509 15.2395411 -39.5 16.1875 C-36.84243832 9.1433606 -27.46569933 4.00574569 -21 0.6875 C-14.107068 -2.26661371 -6.86980268 -3.55757639 0 0 Z " fill="#41543F" transform="translate(304.5,50.8125)"/>
<path d="M0 0 C3.06652741 1.53326371 3.24785876 4.05513609 4.30859375 7.19335938 C4.57800781 8.01642578 4.84742188 8.83949219 5.125 9.6875 C5.40214844 10.49123047 5.67929688 11.29496094 5.96484375 12.12304688 C7.43539858 16.55282163 8.35154056 20.26948682 8 25 C1.58008874 24.42934122 -4.01589463 22.32655091 -10 20 C-6.69271502 18.89757167 -5.70395783 19.1389897 -2.4375 20 C0.86760022 21.02053325 0.86760022 21.02053325 4 20 C3.58303734 15.99715846 2.94459471 12.61430103 1.4375 8.875 C0.19984203 5.78686312 -0.31587726 3.36935745 0 0 Z " fill="#3E533F" transform="translate(148,66)"/>
<path d="M0 0 C3 2.5 3 2.5 5 5 C4.67 5.66 4.34 6.32 4 7 C3.505 6.360625 3.01 5.72125 2.5 5.0625 C-0.98806387 2.18484731 -3.53461041 2.29769264 -8 2 C-8.33 2.99 -8.66 3.98 -9 5 C-9.99 5.495 -9.99 5.495 -11 6 C-11.64738872 12.89109327 -10.90216806 17.26084833 -7.09375 23.08984375 C-6 25 -6 25 -6 28 C-11.15702357 21.46452673 -14.49912451 16.70622572 -14.328125 8.15625 C-13.83561395 4.9197488 -12.34009602 3.20244331 -10 1 C-6.78707942 -0.60646029 -3.4741348 -0.62441428 0 0 Z " fill="#425542" transform="translate(141,55)"/>
<path d="M0 0 C12.67793131 -1.03026078 24.05160604 3.18987651 34 11 C34.66 11.99 35.32 12.98 36 14 C32.78352383 12.92784128 30.64498837 11.72468486 27.9375 9.625 C23.19442401 6.07296309 17.62067184 4.65205297 12 3 C11.67 3.66 11.34 4.32 11 5 C11 4.34 11 3.68 11 3 C8.36 3.33 5.72 3.66 3 4 C2.67 3.01 2.34 2.02 2 1 C1.34 0.67 0.68 0.34 0 0 Z " fill="#375138" transform="translate(182,103)"/>
<path d="M0 0 C0 0.33 0 0.66 0 1 C-14.67246036 3.14153856 -29.17733524 4.55639084 -44 5 C-44 4.34 -44 3.68 -44 3 C-40.30114917 2.12253539 -37.04034007 1.97458968 -33.25 2.125 C-29.33380471 2.17715272 -26.45911058 2.00289217 -22.875 0.4375 C-15.80044843 -2.38178126 -7.40284946 -0.66282255 0 0 Z " fill="#40583E" transform="translate(81,163)"/>
<path d="M0 0 C0.33 0 0.66 0 1 0 C1.21681654 6.61290452 0.79694687 13.05279858 0.125 19.625 C0.04652832 20.42397705 -0.03194336 21.2229541 -0.11279297 22.04614258 C-0.66480275 27.18428357 -1.64203098 32.01317258 -3 37 C-3.66 36.01 -4.32 35.02 -5 34 C-4.505 33.505 -4.505 33.505 -4 33 C-3.95180907 31.56330801 -3.96332932 30.12453219 -4 28.6875 C-4.07956167 19.39204439 -3.41788621 10.01040406 -1 1 C-0.67 0.67 -0.34 0.34 0 0 Z " fill="#3A5339" transform="translate(190,33)"/>
<path d="M0 0 C3.61223909 1.67711101 7.16719443 3.33438885 9 7 C9.556875 7.103125 10.11375 7.20625 10.6875 7.3125 C13.48004328 8.14271557 15.0758977 9.71253131 17.234375 11.609375 C19.87267389 13.68732722 22.78687472 15.15263227 25.7421875 16.73046875 C29.02595008 18.57687505 31.98040696 20.75136689 35 23 C34.67 23.66 34.34 24.32 34 25 C5.51697861 7.8299976 5.51697861 7.8299976 0 0 Z " fill="#435A45" transform="translate(57,68)"/>
<path d="M0 0 C2.75508074 1.21223553 5.20921437 2.74451475 7.6875 4.4375 C8.28949219 4.84871094 8.89148438 5.25992188 9.51171875 5.68359375 C11 7 11 7 12 10 C11 12 11 12 7.6875 13.125 C4 14 4 14 0 14 C0 13.34 0 12.68 0 12 C0.99 11.67 1.98 11.34 3 11 C2.69078116 9.54096742 2.37751201 8.08279278 2.0625 6.625 C1.80146484 5.40683594 1.80146484 5.40683594 1.53515625 4.1640625 C1.07669307 1.970537 1.07669307 1.970537 0 0 Z " fill="#325035" transform="translate(98,119)"/>
<path d="M0 0 C0.33 0.66 0.66 1.32 1 2 C0.34 2 -0.32 2 -1 2 C-1.74926071 5.66305234 -2.2380014 8.42355152 -1 12 C-1.99 12 -2.98 12 -4 12 C-4 13.32 -4 14.64 -4 16 C-4.99 16.33 -5.98 16.66 -7 17 C-8.5625 15.25 -8.5625 15.25 -10 13 C-9.58822572 9.6429927 -8.13552676 7.47819841 -6.125 4.8125 C-5.61195313 4.11769531 -5.09890625 3.42289062 -4.5703125 2.70703125 C-3 1 -3 1 0 0 Z " fill="#264E1F" transform="translate(249,85)"/>
<path d="M0 0 C0.33 0 0.66 0 1 0 C1.08121924 1.60332791 1.13929134 3.20784026 1.1875 4.8125 C1.22230469 5.70582031 1.25710937 6.59914063 1.29296875 7.51953125 C0.93896217 10.51678699 0.13404644 10.99399635 -2 13 C-2.78356902 15.26393971 -2.78356902 15.26393971 -3.1875 17.6875 C-3.42533203 18.89986328 -3.42533203 18.89986328 -3.66796875 20.13671875 C-3.77753906 20.75160156 -3.88710937 21.36648437 -4 22 C-2.96939453 21.65775391 -2.96939453 21.65775391 -1.91796875 21.30859375 C-1.01691406 21.02113281 -0.11585938 20.73367187 0.8125 20.4375 C1.70582031 20.14746094 2.59914062 19.85742188 3.51953125 19.55859375 C6 19 6 19 9 20 C7.27709395 20.70304222 5.54632534 21.38683491 3.8125 22.0625 C2.84957031 22.44535156 1.88664063 22.82820313 0.89453125 23.22265625 C-2.20934675 24.05622133 -3.94919117 23.88679818 -7 23 C-5.77078205 14.87248429 -3.1149283 7.58520709 0 0 Z " fill="#4C5F4D" transform="translate(211,67)"/>
<path d="M0 0 C0.33 0.99 0.66 1.98 1 3 C-0.375 4.5 -0.375 4.5 -2 6 C-2.66 6 -3.32 6 -4 6 C-4.268125 6.639375 -4.53625 7.27875 -4.8125 7.9375 C-6 10 -6 10 -9 11 C-9.68102838 12.32605526 -10.34439791 13.66119153 -11 15 C-12.56119944 16.82922837 -14.17082133 18.61764082 -15.8125 20.375 C-19.32407296 24.17115774 -22.74373927 27.9839451 -26 32 C-26 27.68238505 -23.422501 25.63984466 -20.6875 22.5625 C-20.1500415 21.94721436 -19.61258301 21.33192871 -19.05883789 20.69799805 C-6.41457535 6.28838698 -6.41457535 6.28838698 0 0 Z " fill="#415841" transform="translate(263,66)"/>
<path d="M0 0 C1.67534538 4.09072062 0.24055238 7.11305225 -1.1875 11.125 C-1.61417969 12.36507812 -2.04085937 13.60515625 -2.48046875 14.8828125 C-4 18 -4 18 -6.17578125 19.4296875 C-6.77777344 19.61789063 -7.37976563 19.80609375 -8 20 C-10.09350689 16.5980513 -10.17942163 13.94727588 -10 10 C-8.4375 11.75 -8.4375 11.75 -7 14 C-7.3125 16.25 -7.3125 16.25 -8 18 C-7.34 18 -6.68 18 -6 18 C-5.814375 16.4840625 -5.814375 16.4840625 -5.625 14.9375 C-4.72750461 9.28327904 -3.85896393 4.38518628 0 0 Z " fill="#335036" transform="translate(185,71)"/>
<path d="M0 0 C1 2 1 2 1 5 C0.67 5.99 0.34 6.98 0 8 C5.28 8.66 10.56 9.32 16 10 C12.18894923 12.54070051 9.31435307 12.15363256 4.9375 11.875 C4.20466797 11.85179687 3.47183594 11.82859375 2.71679688 11.8046875 C0.58984375 11.6796875 0.58984375 11.6796875 -3 11 C-4.49609375 8.9453125 -4.49609375 8.9453125 -5 7 C-3.35 4.69 -1.7 2.38 0 0 Z " fill="#3F543D" transform="translate(16,156)"/>
<path d="M0 0 C0.103125 0.639375 0.20625 1.27875 0.3125 1.9375 C0.6528125 2.9584375 0.6528125 2.9584375 1 4 C1.99 4.33 2.98 4.66 4 5 C0.45697201 9.98238311 -2.80848583 12.88381023 -9 14 C-13.67906797 14.22665022 -18.3200193 14.17747118 -23 14 C-23 13.67 -23 13.34 -23 13 C-21.19402344 12.80083984 -21.19402344 12.80083984 -19.3515625 12.59765625 C-17.77601915 12.4194698 -16.20049953 12.2410735 -14.625 12.0625 C-13.8309375 11.97548828 -13.036875 11.88847656 -12.21875 11.79882812 C-7.97744999 11.3961065 -7.97744999 11.3961065 -4 10 C-4.33 9.34 -4.66 8.68 -5 8 C-4.34 7.01 -3.68 6.02 -3 5 C-2.01 5 -1.02 5 0 5 C0 3.35 0 1.7 0 0 Z " fill="#365036" transform="translate(295,117)"/>
<path d="M0 0 C0 0.66 0 1.32 0 2 C-0.96486328 2.20302734 -0.96486328 2.20302734 -1.94921875 2.41015625 C-9.0452931 4.10066184 -14.92102407 6.87087189 -21.25 10.4765625 C-24 12 -24 12 -27 13 C-27.33 13.99 -27.66 14.98 -28 16 C-30.5625 17.1875 -30.5625 17.1875 -33 18 C-26.40837049 8.23462294 -11.83319836 0 0 0 Z " fill="#435543" transform="translate(166,104)"/>
<path d="M0 0 C0 0.66 0 1.32 0 2 C-1.65 2.66 -3.3 3.32 -5 4 C-4.34 4.33 -3.68 4.66 -3 5 C-2.67 5.66 -2.34 6.32 -2 7 C-0.5459375 7.4021875 -0.5459375 7.4021875 0.9375 7.8125 C4 9 4 9 5.375 11.625 C5.58125 12.40875 5.7875 13.1925 6 14 C1.02790438 12.23570801 -3.43438061 9.6060834 -8 7 C-8 5.68 -8 4.36 -8 3 C-2.25 0 -2.25 0 0 0 Z " fill="#374E37" transform="translate(266,116)"/>
<path d="M0 0 C2.451644 1.90683422 2.99328314 2.97984943 4 6 C3.67 6.66 3.34 7.32 3 8 C1.68 7.34 0.36 6.68 -1 6 C-0.34 7.32 0.32 8.64 1 10 C0.01 10.33 -0.98 10.66 -2 11 C-2.61875 10.21625 -3.2375 9.4325 -3.875 8.625 C-5.89858661 6.03162353 -5.89858661 6.03162353 -8 4 C-4.5 0 -4.5 0 0 0 Z " fill="#264A26" transform="translate(115,95)"/>
<path d="M0 0 C4.48897703 3.16868967 5.91668832 7.80812846 7 13 C7.21917282 16.3528779 7.18901929 19.64665775 7 23 C6.67 23 6.34 23 6 23 C5.855625 21.783125 5.71125 20.56625 5.5625 19.3125 C5.16987404 16.17149234 4.66933077 13.09565483 4 10 C3.66666667 8.33333333 3.33333333 6.66666667 3 5 C2.34 5 1.68 5 1 5 C0.34 4.01 -0.32 3.02 -1 2 C-3.36757327 1.16458146 -3.36757327 1.16458146 -6 2 C-7.97037567 4.15242125 -9.50224186 6.50161196 -11 9 C-11.33 8.01 -11.66 7.02 -12 6 C-6.15110422 -1.90391321 -6.15110422 -1.90391321 0 0 Z " fill="#3B4F3A" transform="translate(183,9)"/>
<path d="M0 0 C4.25023138 0.11939499 8.50028405 0.24370164 12.75024414 0.37231445 C14.19226302 0.41529012 15.63432067 0.45698648 17.07641602 0.49731445 C24.75955833 0.71302833 32.37125304 0.98567498 40 2 C40 2.99 40 3.98 40 5 C34.48300603 5.25077245 34.48300603 5.25077245 32.10449219 4.01586914 C29.62569041 2.81931529 27.82125251 2.70197284 25.078125 2.62109375 C24.13453125 2.58693359 23.1909375 2.55277344 22.21875 2.51757812 C20.74921875 2.47793945 20.74921875 2.47793945 19.25 2.4375 C12.76864307 2.23387448 6.42270328 1.9207904 0 1 C0 0.67 0 0.34 0 0 Z " fill="#234221" transform="translate(58,154)"/>
<path d="M0 0 C0 0.66 0 1.32 0 2 C-5.86358465 4.94392388 -11.18480066 5.72434626 -17.6875 6.25 C-18.62400391 6.34023437 -19.56050781 6.43046875 -20.52539062 6.5234375 C-28.05938754 7.19025807 -28.05938754 7.19025807 -32 6 C-29.47952208 5.51890037 -26.9586463 5.04007397 -24.4375 4.5625 C-23.73302734 4.42779297 -23.02855469 4.29308594 -22.30273438 4.15429688 C-18.92972624 3.51700041 -15.57761999 2.94132413 -12.17578125 2.46875 C-7.94334069 1.84403553 -4.27892186 0 0 0 Z " fill="#2A4D28" transform="translate(352,157)"/>
<path d="M0 0 C3 1 3 1 4.1875 2.625 C5.65205479 6.90600632 5.67783439 10.34195157 3.94921875 14.5703125 C2.15256702 18.20601482 0.25052503 21.62421246 -2 25 C-2.66 24.67 -3.32 24.34 -4 24 C-3 21 -3 21 -1.51171875 19.69921875 C0.66043695 17.25764839 0.74015266 15.01275405 1.1875 11.8125 C1.34605469 10.72582031 1.50460938 9.63914062 1.66796875 8.51953125 C1.77753906 7.68808594 1.88710937 6.85664062 2 6 C1.34 5.67 0.68 5.34 0 5 C0.66 5 1.32 5 2 5 C1.34 3.35 0.68 1.7 0 0 Z " fill="#415542" transform="translate(229,57)"/>
<path d="M0 0 C1.32 0.33 2.64 0.66 4 1 C2.67667408 5.99923125 -0.60768155 9.39786925 -5 12 C-5.99 11.67 -6.98 11.34 -8 11 C-5.36 7.37 -2.72 3.74 0 0 Z " fill="#304D30" transform="translate(131,122)"/>
<path d="M0 0 C0.33 1.32 0.66 2.64 1 4 C-3.26311718 8.12989477 -6.28758534 8.61271765 -12 9 C-12 8.01 -12 7.02 -12 6 C-10.35 5.34 -8.7 4.68 -7 4 C-7 3.34 -7 2.68 -7 2 C-4.69 1.34 -2.38 0.68 0 0 Z " fill="#2E502B" transform="translate(225,79)"/>
<path d="M0 0 C0.66 0 1.32 0 2 0 C2 8.58 2 17.16 2 26 C1.01 26 0.02 26 -1 26 C-1.0291544 22.60418484 -1.04685068 19.20840214 -1.0625 15.8125 C-1.07087891 14.85279297 -1.07925781 13.89308594 -1.08789062 12.90429688 C-1.09111328 11.97294922 -1.09433594 11.04160156 -1.09765625 10.08203125 C-1.10289307 9.22843018 -1.10812988 8.3748291 -1.11352539 7.49536133 C-0.99579323 4.90753253 -0.57107044 2.52338047 0 0 Z " fill="#385238" transform="translate(170,19)"/>
<path d="M0 0 C0.66 0 1.32 0 2 0 C-0.99848855 7.42167331 -10.00359479 12.64755584 -17 16 C-17.66 15.67 -18.32 15.34 -19 15 C-13.25 11 -13.25 11 -11 11 C-10.67 10.01 -10.34 9.02 -10 8 C-8.66666667 7 -7.33333333 6 -6 5 C-5.67 4.01 -5.34 3.02 -5 2 C-3.35 2 -1.7 2 0 2 C0 1.34 0 0.68 0 0 Z " fill="#41573D" transform="translate(304,63)"/>
<path d="M0 0 C0 0.33 0 0.66 0 1 C-3.79074537 1.88563089 -7.28695898 2.11681301 -11.17578125 2.09765625 C-12.33271484 2.09443359 -13.48964844 2.09121094 -14.68164062 2.08789062 C-15.87982422 2.07951172 -17.07800781 2.07113281 -18.3125 2.0625 C-19.53001953 2.05798828 -20.74753906 2.05347656 -22.00195312 2.04882812 C-25.00135226 2.03706578 -28.00065089 2.02062826 -31 2 C-31 1.67 -31 1.34 -31 1 C-27.71000551 0.62904699 -24.4179195 0.28143701 -21.125 -0.0625 C-20.2071875 -0.16626953 -19.289375 -0.27003906 -18.34375 -0.37695312 C-12.07088168 -1.0174925 -6.2439943 -0.87490597 0 0 Z " fill="#4A6849" transform="translate(211,165)"/>
<path d="M0 0 C1.12148438 0.30744141 1.12148438 0.30744141 2.265625 0.62109375 C3.25046875 0.89050781 4.2353125 1.15992188 5.25 1.4375 C6.71179687 1.83775391 6.71179687 1.83775391 8.203125 2.24609375 C10.46372653 2.85544584 12.72622009 3.44238255 15 4 C15 5.32 15 6.64 15 8 C13.35 8 11.7 8 10 8 C10 7.34 10 6.68 10 6 C7.03 5.67 4.06 5.34 1 5 C0.67 3.35 0.34 1.7 0 0 Z " fill="#345132" transform="translate(39,147)"/>
<path d="M0 0 C2.05078125 0.03255208 4.1015625 0.06510417 6.15234375 0.09765625 C6.48234375 0.75765625 6.81234375 1.41765625 7.15234375 2.09765625 C6.05921875 2.05640625 4.96609375 2.01515625 3.83984375 1.97265625 C0.06342146 1.77690959 0.06342146 1.77690959 -2.84765625 4.09765625 C-4.2330589 7.02239517 -5.14662122 9.94299863 -5.84765625 13.09765625 C-7.16765625 12.76765625 -8.48765625 12.43765625 -9.84765625 12.09765625 C-8.56765523 7.09401592 -6.67437549 4.53189147 -2.84765625 1.09765625 C-1.84765625 0.09765625 -1.84765625 0.09765625 0 0 Z " fill="#3A523C" transform="translate(221.84765625,54.90234375)"/>
<path d="M0 0 C-0.33 0.66 -0.66 1.32 -1 2 C-1.33 2.99 -1.66 3.98 -2 5 C-1.67 5.66 -1.34 6.32 -1 7 C-1.99 7.495 -1.99 7.495 -3 8 C-3 9.65 -3 11.3 -3 13 C-4.32 12.67 -5.64 12.34 -7 12 C-6.9129995 10.37399059 -6.8048219 8.74910322 -6.6875 7.125 C-6.62949219 6.22007813 -6.57148437 5.31515625 -6.51171875 4.3828125 C-5.68208542 0.51963438 -3.72982308 0 0 0 Z " fill="#2B4E25" transform="translate(78,111)"/>
<path d="M0 0 C0 0.66 0 1.32 0 2 C-4.22949995 4.41685712 -7.12335991 5.34833144 -12 5 C-12.66 3.68 -13.32 2.36 -14 1 C-4.58997722 -0.14806378 -4.58997722 -0.14806378 0 0 Z " fill="#3B553A" transform="translate(181,102)"/>
<path d="M0 0 C2.46685824 1.20334548 3.8635004 2.1262505 5.5625 4.25 C5.8925 5.24 6.2225 6.23 6.5625 7.25 C5.5725 7.58 4.5825 7.91 3.5625 8.25 C3.5625 7.26 3.5625 6.27 3.5625 5.25 C-0.8925 4.26 -0.8925 4.26 -5.4375 3.25 C-5.1075 2.26 -4.7775 1.27 -4.4375 0.25 C-2.4375 -0.75 -2.4375 -0.75 0 0 Z " fill="#274925" transform="translate(93.4375,114.75)"/>
<path d="M0 0 C0.88365234 0.00451172 1.76730469 0.00902344 2.67773438 0.01367188 C4.84768559 0.02540134 7.01760172 0.04333505 9.1875 0.0625 C8.8575 0.7225 8.5275 1.3825 8.1875 2.0625 C7.62240723 2.08755615 7.05731445 2.1126123 6.47509766 2.13842773 C3.92066258 2.25429956 1.3666045 2.37706537 -1.1875 2.5 C-2.07695312 2.53931641 -2.96640625 2.57863281 -3.8828125 2.61914062 C-4.73359375 2.66103516 -5.584375 2.70292969 -6.4609375 2.74609375 C-7.24645996 2.78275146 -8.03198242 2.81940918 -8.84130859 2.85717773 C-10.88773496 2.953391 -10.88773496 2.953391 -12.8125 4.0625 C-13.4725 3.7325 -14.1325 3.4025 -14.8125 3.0625 C-14.8125 2.4025 -14.8125 1.7425 -14.8125 1.0625 C-9.89747242 -0.22985715 -5.03959898 -0.04885517 0 0 Z " fill="#2F4A2D" transform="translate(316.8125,141.9375)"/>
<path d="M0 0 C0 0.33 0 0.66 0 1 C-5.97127181 1.98554972 -11.89491458 2.31055351 -17.9375 2.5625 C-18.90751953 2.60568359 -19.87753906 2.64886719 -20.87695312 2.69335938 C-23.25118601 2.79862093 -25.62550921 2.90075707 -28 3 C-28 2.34 -28 1.68 -28 1 C-24.21036037 0.10502975 -20.76260535 -0.07794697 -16.875 0 C-10.83356915 0.1205273 -6.08237607 -0.89739975 0 0 Z " fill="#4B5E48" transform="translate(65,165)"/>
<path d="M0 0 C1 3 1 3 0.00390625 5.26171875 C-0.47175781 6.06222656 -0.94742188 6.86273438 -1.4375 7.6875 C-2.14712891 8.89986328 -2.14712891 8.89986328 -2.87109375 10.13671875 C-3.24363281 10.75160156 -3.61617187 11.36648437 -4 12 C-4.99 11.34 -5.98 10.68 -7 10 C-7 9.34 -7 8.68 -7 8 C-6.01 7.34 -5.02 6.68 -4 6 C-4 5.01 -4 4.02 -4 3 C-2 1.3125 -2 1.3125 0 0 Z " fill="#385439" transform="translate(145,140)"/>
<path d="M0 0 C0.33 0.66 0.66 1.32 1 2 C0.34 2 -0.32 2 -1 2 C-1.2475 2.639375 -1.495 3.27875 -1.75 3.9375 C-3 6 -3 6 -5.125 6.75 C-6.053125 6.87375 -6.053125 6.87375 -7 7 C-7.103125 7.639375 -7.20625 8.27875 -7.3125 8.9375 C-7.539375 9.618125 -7.76625 10.29875 -8 11 C-8.99 11.33 -9.98 11.66 -11 12 C-11 10.68 -11 9.36 -11 8 C-8.59375 5.859375 -8.59375 5.859375 -5.5 3.75 C-3.96859375 2.69039062 -3.96859375 2.69039062 -2.40625 1.609375 C-1.6121875 1.07828125 -0.818125 0.5471875 0 0 Z " fill="#2C4C2B" transform="translate(29,147)"/>
<path d="M0 0 C3.61223909 1.67711101 7.16719443 3.33438885 9 7 C9.598125 7.12375 10.19625 7.2475 10.8125 7.375 C13.70194332 8.20055523 15.01607936 9.80351643 17 12 C16.01 12.33 15.02 12.66 14 13 C11.40625 11.26953125 11.40625 11.26953125 8.5 8.8125 C7.5409375 8.01457031 6.581875 7.21664062 5.59375 6.39453125 C3.39584527 4.36544149 1.67502228 2.46160369 0 0 Z " fill="#3E553D" transform="translate(57,68)"/>
<path d="M0 0 C0.33 0.66 0.66 1.32 1 2 C0.484375 2.33 -0.03125 2.66 -0.5625 3 C-2.40297072 5.12345229 -2.40297072 5.12345229 -1.8125 8.9375 C-1.31707798 11.92654621 -0.62391268 14.40173971 1 17 C-5 11 -5 11 -5.375 7.6875 C-5 4 -5 4 -2.5 1.5625 C-1.2625 0.7890625 -1.2625 0.7890625 0 0 Z " fill="#3D513C" transform="translate(56,51)"/>
<path d="M0 0 C0.33 0.66 0.66 1.32 1 2 C1.58265625 1.98839844 2.1653125 1.97679687 2.765625 1.96484375 C9.56012255 1.89006154 16.23892255 2.34944959 23 3 C23 3.33 23 3.66 23 4 C20.89651926 4.19504458 18.79217415 4.38078496 16.6875 4.5625 C15.51574219 4.66691406 14.34398437 4.77132812 13.13671875 4.87890625 C10 5 10 5 7 4 C4.94106379 3.77674186 2.87766347 3.59294241 0.8125 3.4375 C-0.81751953 3.31181641 -0.81751953 3.31181641 -2.48046875 3.18359375 C-3.31191406 3.12300781 -4.14335937 3.06242188 -5 3 C-5 2.67 -5 2.34 -5 2 C-3.35 2 -1.7 2 0 2 C0 1.34 0 0.68 0 0 Z " fill="#1C3F1D" transform="translate(173,158)"/>
<path d="M0 0 C1.33333333 0.66666667 2.66666667 1.33333333 4 2 C6.00800456 1.71887936 8.01014051 1.38932033 10 1 C6.33997803 4.05001831 0.92148529 8 -4 8 C-3.67 7.01 -3.34 6.02 -3 5 C-2.34 5 -1.68 5 -1 5 C-0.67 3.35 -0.34 1.7 0 0 Z " fill="#405A41" transform="translate(268,82)"/>
<path d="M0 0 C-1.875 1.0625 -1.875 1.0625 -4 2 C-4.66 1.67 -5.32 1.34 -6 1 C-6.33 1.99 -6.66 2.98 -7 4 C-8.5778125 4.2165625 -8.5778125 4.2165625 -10.1875 4.4375 C-13.15460549 4.87526966 -16.06794366 5.37804866 -19 6 C-16.45757288 2.93853067 -13.79531359 1.98658102 -10.0625 0.75 C-9.02222656 0.39421875 -7.98195313 0.0384375 -6.91015625 -0.328125 C-4.05806177 -0.98659513 -2.69443735 -1.01284874 0 0 Z " fill="#2A4E27" transform="translate(298,51)"/>
<path d="M0 0 C0.66 0.33 1.32 0.66 2 1 C1.525625 1.825 1.05125 2.65 0.5625 3.5 C-1.23569599 7.52795901 -1.6234255 10.63173579 -2 15 C-2.99 14.67 -3.98 14.34 -5 14 C-4.53411505 8.29290936 -3.06242216 4.84060277 0 0 Z " fill="#304933" transform="translate(122,135)"/>
<path d="M0 0 C1.19109375 0.42152344 1.19109375 0.42152344 2.40625 0.8515625 C3.2003125 1.12742187 3.994375 1.40328125 4.8125 1.6875 C6.90625 2.4765625 6.90625 2.4765625 8.90625 3.4765625 C8.90625 4.1365625 8.90625 4.7965625 8.90625 5.4765625 C4.61625 4.4865625 0.32625 3.4965625 -4.09375 2.4765625 C-4.09375 1.8165625 -4.09375 1.1565625 -4.09375 0.4765625 C-2.09375 -0.5234375 -2.09375 -0.5234375 0 0 Z " fill="#344C37" transform="translate(82.09375,109.5234375)"/>
<path d="M0 0 C4.54109672 4.26587874 8.24735246 9.03612328 12 14 C11.67 14.66 11.34 15.32 11 16 C10.34 14.68 9.68 13.36 9 12 C8.34 12 7.68 12 7 12 C3 6.58823529 3 6.58823529 3 4 C2.34 4 1.68 4 1 4 C0.67 2.68 0.34 1.36 0 0 Z " fill="#435640" transform="translate(106,83)"/>
<path d="M0 0 C1.65 0.33 3.3 0.66 5 1 C5 1.66 5 2.32 5 3 C8.465 2.505 8.465 2.505 12 2 C8.68629 4.20914 7.6553979 4.22481553 3.8125 4.125 C2.91144531 4.10695312 2.01039062 4.08890625 1.08203125 4.0703125 C0.39496094 4.04710937 -0.29210938 4.02390625 -1 4 C-0.67 2.68 -0.34 1.36 0 0 Z " fill="#2E5229" transform="translate(45,162)"/>
<path d="M0 0 C2.97 1.98 5.94 3.96 9 6 C7 7 7 7 5.01171875 6.4765625 C3.86123047 6.05503906 3.86123047 6.05503906 2.6875 5.625 C-0.53077009 4.48822395 -3.61931629 3.54527157 -7 3 C-5.1875 1.9375 -5.1875 1.9375 -3 1 C-2.01 1.33 -1.02 1.66 0 2 C0 1.34 0 0.68 0 0 Z " fill="#415642" transform="translate(289,155)"/>
<path d="M0 0 C2.31 0.33 4.62 0.66 7 1 C7 1.99 7 2.98 7 4 C4.03 4 1.06 4 -2 4 C-2 3.34 -2 2.68 -2 2 C-1.34 2 -0.68 2 0 2 C0 1.34 0 0.68 0 0 Z " fill="#3B473A" transform="translate(235,161)"/>
<path d="M0 0 C5.3820598 -0.35880399 5.3820598 -0.35880399 7.9375 1.125 C9 3 9 3 8.8125 6.125 C8.544375 7.07375 8.27625 8.0225 8 9 C7.01 9.495 7.01 9.495 6 10 C6 7.69 6 5.38 6 3 C4.02 2.34 2.04 1.68 0 1 C0 0.67 0 0.34 0 0 Z " fill="#254122" transform="translate(347,147)"/>
<path d="M0 0 C0.66 0.66 1.32 1.32 2 2 C-0.52480693 4.52480693 -2.13823034 4.55738633 -5.625 5.125 C-6.62789063 5.29257813 -7.63078125 5.46015625 -8.6640625 5.6328125 C-9.43492187 5.75398438 -10.20578125 5.87515625 -11 6 C-11 5.34 -11 4.68 -11 4 C-7.37 2.68 -3.74 1.36 0 0 Z " fill="#254723" transform="translate(277,112)"/>
<path d="M0 0 C0.33 0 0.66 0 1 0 C1.06058594 1.26457031 1.12117187 2.52914063 1.18359375 3.83203125 C1.26800904 5.49219871 1.35265655 7.15235437 1.4375 8.8125 C1.47681641 9.64587891 1.51613281 10.47925781 1.55664062 11.33789062 C1.59853516 12.14033203 1.64042969 12.94277344 1.68359375 13.76953125 C1.72025146 14.50792236 1.75690918 15.24631348 1.79467773 16.00708008 C1.94842141 18.207495 1.94842141 18.207495 3 21 C2.01 21 1.02 21 0 21 C0 14.07 0 7.14 0 0 Z " fill="#425543" transform="translate(169,24)"/>
<path d="M0 0 C3.37251924 2.60603759 4.34793983 5.9377401 5 10 C5.15099977 13.34147889 5.12103741 16.65802271 5 20 C4.67 20 4.34 20 4 20 C3.855625 18.783125 3.71125 17.56625 3.5625 16.3125 C2.85294575 10.6951955 1.59966688 5.43886738 0 0 Z " fill="#435641" transform="translate(185,12)"/>
<path d="M0 0 C-4.29 2.31 -8.58 4.62 -13 7 C-13 6.01 -13 5.02 -13 4 C-12.01 3.34 -11.02 2.68 -10 2 C-10 1.67 -10 1.34 -10 1 C-8.71073008 0.63720544 -7.41846728 0.28503302 -6.125 -0.0625 C-5.40570313 -0.25972656 -4.68640625 -0.45695312 -3.9453125 -0.66015625 C-2 -1 -2 -1 0 0 Z " fill="#405741" transform="translate(171,121)"/>
<path d="M0 0 C4.75 0.75 4.75 0.75 7 3 C4.64561267 4.42944945 3.51967567 5.08661261 0.75 4.625 C0.1725 4.41875 -0.405 4.2125 -1 4 C-0.67 2.68 -0.34 1.36 0 0 Z " fill="#355935" transform="translate(257,88)"/>
<path d="M0 0 C2.97 0.495 2.97 0.495 6 1 C6.33 1.99 6.66 2.98 7 4 C6.34 4.66 5.68 5.32 5 6 C2.375 5.625 2.375 5.625 0 5 C0.33 4.01 0.66 3.02 1 2 C0.67 1.34 0.34 0.68 0 0 Z " fill="#2A412C" transform="translate(103,125)"/>
<path d="M0 0 C1.32 0.33 2.64 0.66 4 1 C2.21475351 2.19713017 0.4215972 3.38247279 -1.375 4.5625 C-2.87160156 5.55443359 -2.87160156 5.55443359 -4.3984375 6.56640625 C-5.25695312 7.03949219 -6.11546875 7.51257813 -7 8 C-7.66 7.67 -8.32 7.34 -9 7 C-3.25 3 -3.25 3 -1 3 C-0.67 2.01 -0.34 1.02 0 0 Z " fill="#475F46" transform="translate(294,71)"/>
<path d="M0 0 C1.41623216 -0.05447047 2.83308191 -0.09300508 4.25 -0.125 C5.03890625 -0.14820313 5.8278125 -0.17140625 6.640625 -0.1953125 C9.20731941 0.0171622 10.7916067 0.71345895 13 2 C12.2575 2.144375 11.515 2.28875 10.75 2.4375 C8.47972261 2.90187492 6.24240521 3.41863569 4 4 C4 3.34 4 2.68 4 2 C2.68 2 1.36 2 0 2 C0 1.34 0 0.68 0 0 Z " fill="#2E4F2E" transform="translate(57,51)"/>
<path d="M0 0 C0.33 1.32 0.66 2.64 1 4 C4.96 4 8.92 4 13 4 C13 4.33 13 4.66 13 5 C8.05 5.33 3.1 5.66 -2 6 C-1.34 4.02 -0.68 2.04 0 0 Z " fill="#374F3A" transform="translate(139,153)"/>
<path d="M0 0 C-4.56327794 3.53286034 -8.49633208 3.32374517 -14 3 C-5.02487136 -1.67495712 -5.02487136 -1.67495712 0 0 Z " fill="#274128" transform="translate(281,151)"/>
<path d="M0 0 C1.45742463 -0.08096803 2.91612807 -0.13917774 4.375 -0.1875 C5.18710937 -0.22230469 5.99921875 -0.25710937 6.8359375 -0.29296875 C7.55007812 -0.19628906 8.26421875 -0.09960938 9 0 C9.66 0.99 10.32 1.98 11 3 C9.02 3 7.04 3 5 3 C5 2.34 5 1.68 5 1 C3.35 1.33 1.7 1.66 0 2 C0 1.34 0 0.68 0 0 Z " fill="#23451F" transform="translate(30,147)"/>
<path d="M0 0 C1.875 0.75 1.875 0.75 2.875 2.75 C0.16620665 4.10439668 -2.13433268 3.81501451 -5.125 3.75 C-5.125 3.09 -5.125 2.43 -5.125 1.75 C-2.125 -0.25 -2.125 -0.25 0 0 Z " fill="#2B462D" transform="translate(255.125,91.25)"/>
<path d="M0 0 C0.33 0 0.66 0 1 0 C1 3.3 1 6.6 1 10 C0.01 10.33 -0.98 10.66 -2 11 C-2.28571429 3.57142857 -2.28571429 3.57142857 0 0 Z " fill="#3C553D" transform="translate(211,67)"/>
<path d="M0 0 C-0.33 0.66 -0.66 1.32 -1 2 C-3.94140625 2.4140625 -3.94140625 2.4140625 -7.5625 2.625 C-8.76003906 2.69976562 -9.95757812 2.77453125 -11.19140625 2.8515625 C-12.11824219 2.90054688 -13.04507812 2.94953125 -14 3 C-11.39395012 1.26263341 -9.92766764 0.54996173 -7 -0.1875 C-6.319375 -0.36667969 -5.63875 -0.54585937 -4.9375 -0.73046875 C-3 -1 -3 -1 0 0 Z " fill="#214221" transform="translate(296,147)"/>
<path d="M0 0 C1.485 0.99 1.485 0.99 3 2 C3.1875 5.125 3.1875 5.125 3 8 C2.01 8 1.02 8 0 8 C0 5.36 0 2.72 0 0 Z " fill="#284127" transform="translate(296,113)"/>
<path d="M0 0 C1.18771723 3.42943519 0.80226223 5.37784675 -0.4375 8.75 C-0.86869141 9.94882813 -0.86869141 9.94882813 -1.30859375 11.171875 C-1.65083984 12.07679687 -1.65083984 12.07679687 -2 13 C-3.24964981 9.25105057 -2.75598428 6.84864723 -2 3 C-1.34 2.01 -0.68 1.02 0 0 Z " fill="#485A4A" transform="translate(185,71)"/>
<path d="M0 0 C0.33 0.66 0.66 1.32 1 2 C1.99 2 2.98 2 4 2 C4.66 3.32 5.32 4.64 6 6 C5.443125 5.855625 4.88625 5.71125 4.3125 5.5625 C1.88615805 4.97230872 -0.54906345 4.476571 -3 4 C-2.01 2.68 -1.02 1.36 0 0 Z " fill="#345330" transform="translate(197,113)"/>
<path d="M0 0 C1.5625 1.75 1.5625 1.75 3 4 C2.6875 6.25 2.6875 6.25 2 8 C2.99 7.67 3.98 7.34 5 7 C4.67 7.99 4.34 8.98 4 10 C3.01 9.67 2.02 9.34 1 9 C0.67 6.03 0.34 3.06 0 0 Z " fill="#4B584A" transform="translate(175,81)"/>
<path d="M0 0 C2.31 0 4.62 0 7 0 C6.67 1.32 6.34 2.64 6 4 C4.68 4 3.36 4 2 4 C2 3.34 2 2.68 2 2 C1.34 2 0.68 2 0 2 C0 1.34 0 0.68 0 0 Z " fill="#2E4B2D" transform="translate(55,152)"/>
<path d="M0 0 C0.66 0.33 1.32 0.66 2 1 C2.6328125 3.06640625 2.6328125 3.06640625 3.125 5.5625 C3.29257813 6.38878906 3.46015625 7.21507812 3.6328125 8.06640625 C3.75398437 8.70449219 3.87515625 9.34257812 4 10 C0.125 8.25 0.125 8.25 -1 6 C-0.34 6 0.32 6 1 6 C0.67 4.02 0.34 2.04 0 0 Z " fill="#344635" transform="translate(226,126)"/>
<path d="M0 0 C2.79872437 2.52788007 4.45773019 4.20411134 5 8 C3.02 6.68 1.04 5.36 -1 4 C-0.67 2.68 -0.34 1.36 0 0 Z " fill="#2A3E2D" transform="translate(120,104)"/>
<path d="M0 0 C0 0.99 0 1.98 0 3 C-0.99 3.495 -0.99 3.495 -2 4 C-2 6.31 -2 8.62 -2 11 C-2.66 11 -3.32 11 -4 11 C-4 8.03 -4 5.06 -4 2 C-2.68 1.34 -1.36 0.68 0 0 Z " fill="#355236" transform="translate(132,57)"/>
<path d="M0 0 C0.99 0.33 1.98 0.66 3 1 C-0.28804981 3.91227269 -2.59885603 5.49701212 -7 6 C-5.1875 4 -5.1875 4 -3 2 C-2.01 2 -1.02 2 0 2 C0 1.34 0 0.68 0 0 Z " fill="#273D26" transform="translate(237,100)"/>
<path d="M0 0 C-0.33 1.32 -0.66 2.64 -1 4 C-2.65 4.33 -4.3 4.66 -6 5 C-5.625 3.0625 -5.625 3.0625 -5 1 C-3 0 -3 0 0 0 Z " fill="#2F472C" transform="translate(158,126)"/>
<path d="M0 0 C0 0.66 0 1.32 0 2 C-2.64 2.33 -5.28 2.66 -8 3 C-8 2.34 -8 1.68 -8 1 C-5.29120665 -0.35439668 -2.99066732 -0.06501451 0 0 Z " fill="#314834" transform="translate(176,118)"/>
<path d="M0 0 C2.4375 0.8125 2.4375 0.8125 5 2 C5.33 2.99 5.66 3.98 6 5 C5.01 5.33 4.02 5.66 3 6 C2.01 4.02 1.02 2.04 0 0 Z " fill="#314C31" transform="translate(143,61)"/>
</svg>
